<mxfile host="app.diagrams.net" modified="2023-09-01T06:46:37.940Z" agent="Mozilla/5.0 (Windows NT 10.0; Win64; x64) AppleWebKit/537.36 (KHTML, like Gecko) Chrome/115.0.0.0 Safari/537.36" etag="anTQO5IXWcSxcC8TjutV" version="21.7.0" type="github">
  <diagram name="第 1 页" id="i-hQURjPeFK39cfyPwLi">
    <mxGraphModel dx="1434" dy="758" grid="1" gridSize="10" guides="1" tooltips="1" connect="1" arrows="1" fold="1" page="1" pageScale="1" pageWidth="827" pageHeight="1169" math="0" shadow="0">
      <root>
        <mxCell id="0" />
        <mxCell id="1" parent="0" />
        <mxCell id="bjcHSdZk1-LDdz5LGARR-2" value="" style="rounded=0;whiteSpace=wrap;html=1;dashed=1;fontFamily=Times New Roman;" vertex="1" parent="1">
          <mxGeometry x="522" y="189" width="288" height="336" as="geometry" />
        </mxCell>
        <mxCell id="bjcHSdZk1-LDdz5LGARR-1" value="" style="rounded=0;whiteSpace=wrap;html=1;dashed=1;fontFamily=Times New Roman;" vertex="1" parent="1">
          <mxGeometry x="30" y="189" width="480" height="336" as="geometry" />
        </mxCell>
        <mxCell id="APk3Ht_Tyn_4InIeWBDC-63" value="" style="group;dashed=1;fontFamily=Times New Roman;" parent="1" vertex="1" connectable="0">
          <mxGeometry x="70" y="270" width="430" height="160" as="geometry" />
        </mxCell>
        <mxCell id="APk3Ht_Tyn_4InIeWBDC-177" value="" style="rounded=0;whiteSpace=wrap;html=1;fontFamily=Times New Roman;" parent="APk3Ht_Tyn_4InIeWBDC-63" vertex="1">
          <mxGeometry x="-20" y="-25" width="450" height="145" as="geometry" />
        </mxCell>
        <mxCell id="APk3Ht_Tyn_4InIeWBDC-64" value="" style="ellipse;whiteSpace=wrap;html=1;fillColor=#dae8fc;strokeWidth=1;strokeColor=#6c8ebf;fontFamily=Times New Roman;" parent="APk3Ht_Tyn_4InIeWBDC-63" vertex="1">
          <mxGeometry y="-5" width="32" height="20" as="geometry" />
        </mxCell>
        <mxCell id="APk3Ht_Tyn_4InIeWBDC-65" value="" style="ellipse;whiteSpace=wrap;html=1;fillColor=#dae8fc;strokeWidth=1;strokeColor=#6c8ebf;fontFamily=Times New Roman;" parent="APk3Ht_Tyn_4InIeWBDC-63" vertex="1">
          <mxGeometry x="45" y="-5" width="32" height="20" as="geometry" />
        </mxCell>
        <mxCell id="APk3Ht_Tyn_4InIeWBDC-66" value="" style="ellipse;whiteSpace=wrap;html=1;fillColor=#dae8fc;strokeWidth=1;strokeColor=#6c8ebf;fontFamily=Times New Roman;" parent="APk3Ht_Tyn_4InIeWBDC-63" vertex="1">
          <mxGeometry x="134" y="-5" width="32" height="20" as="geometry" />
        </mxCell>
        <mxCell id="APk3Ht_Tyn_4InIeWBDC-67" value="" style="ellipse;whiteSpace=wrap;html=1;fillColor=#dae8fc;strokeWidth=1;strokeColor=#6c8ebf;fontFamily=Times New Roman;" parent="APk3Ht_Tyn_4InIeWBDC-63" vertex="1">
          <mxGeometry x="89" y="-5" width="32" height="20" as="geometry" />
        </mxCell>
        <mxCell id="APk3Ht_Tyn_4InIeWBDC-68" value="" style="ellipse;whiteSpace=wrap;html=1;fillColor=#dae8fc;strokeWidth=1;strokeColor=#6c8ebf;fontFamily=Times New Roman;" parent="APk3Ht_Tyn_4InIeWBDC-63" vertex="1">
          <mxGeometry x="179" y="-5" width="32" height="20" as="geometry" />
        </mxCell>
        <mxCell id="APk3Ht_Tyn_4InIeWBDC-69" value="" style="ellipse;whiteSpace=wrap;html=1;fillColor=#dae8fc;strokeWidth=1;strokeColor=#6c8ebf;fontFamily=Times New Roman;" parent="APk3Ht_Tyn_4InIeWBDC-63" vertex="1">
          <mxGeometry x="268" y="-5" width="32" height="20" as="geometry" />
        </mxCell>
        <mxCell id="APk3Ht_Tyn_4InIeWBDC-70" value="" style="ellipse;whiteSpace=wrap;html=1;fillColor=#dae8fc;strokeWidth=1;strokeColor=#6c8ebf;fontFamily=Times New Roman;" parent="APk3Ht_Tyn_4InIeWBDC-63" vertex="1">
          <mxGeometry x="223" y="-5" width="32" height="20" as="geometry" />
        </mxCell>
        <mxCell id="APk3Ht_Tyn_4InIeWBDC-71" value="" style="ellipse;whiteSpace=wrap;html=1;fillColor=#dae8fc;strokeWidth=1;strokeColor=#6c8ebf;fontFamily=Times New Roman;" parent="APk3Ht_Tyn_4InIeWBDC-63" vertex="1">
          <mxGeometry x="312" y="-5" width="32" height="20" as="geometry" />
        </mxCell>
        <mxCell id="APk3Ht_Tyn_4InIeWBDC-72" value="" style="ellipse;whiteSpace=wrap;html=1;fillColor=#dae8fc;strokeWidth=1;strokeColor=#6c8ebf;fontFamily=Times New Roman;" parent="APk3Ht_Tyn_4InIeWBDC-63" vertex="1">
          <mxGeometry x="357" y="-5" width="32" height="20" as="geometry" />
        </mxCell>
        <mxCell id="APk3Ht_Tyn_4InIeWBDC-1" value="Source Code" style="rounded=0;whiteSpace=wrap;html=1;fillColor=#d0cee2;strokeColor=#56517e;fontFamily=Times New Roman;" parent="1" vertex="1">
          <mxGeometry x="50" y="466" width="450" height="19" as="geometry" />
        </mxCell>
        <mxCell id="APk3Ht_Tyn_4InIeWBDC-5" value="def" style="text;html=1;strokeColor=none;fillColor=none;align=center;verticalAlign=middle;whiteSpace=wrap;rounded=0;fontFamily=Times New Roman;" parent="1" vertex="1">
          <mxGeometry x="78" y="432" width="20" height="40" as="geometry" />
        </mxCell>
        <mxCell id="APk3Ht_Tyn_4InIeWBDC-6" value="max" style="text;html=1;strokeColor=none;fillColor=none;align=center;verticalAlign=middle;whiteSpace=wrap;rounded=0;fontFamily=Times New Roman;" parent="1" vertex="1">
          <mxGeometry x="118" y="432" width="20" height="40" as="geometry" />
        </mxCell>
        <mxCell id="APk3Ht_Tyn_4InIeWBDC-7" value="(" style="text;html=1;strokeColor=none;fillColor=none;align=center;verticalAlign=middle;whiteSpace=wrap;rounded=0;fontFamily=Times New Roman;" parent="1" vertex="1">
          <mxGeometry x="152" y="432" width="10" height="40" as="geometry" />
        </mxCell>
        <mxCell id="APk3Ht_Tyn_4InIeWBDC-8" value="a,b" style="text;html=1;strokeColor=none;fillColor=none;align=center;verticalAlign=middle;whiteSpace=wrap;rounded=0;fontFamily=Times New Roman;" parent="1" vertex="1">
          <mxGeometry x="161" y="432" width="20" height="40" as="geometry" />
        </mxCell>
        <mxCell id="APk3Ht_Tyn_4InIeWBDC-9" value=")" style="text;html=1;strokeColor=none;fillColor=none;align=center;verticalAlign=middle;whiteSpace=wrap;rounded=0;fontFamily=Times New Roman;" parent="1" vertex="1">
          <mxGeometry x="180" y="432" width="10" height="40" as="geometry" />
        </mxCell>
        <mxCell id="APk3Ht_Tyn_4InIeWBDC-10" value="x=0" style="text;html=1;strokeColor=none;fillColor=none;align=center;verticalAlign=middle;whiteSpace=wrap;rounded=0;fontFamily=Times New Roman;" parent="1" vertex="1">
          <mxGeometry x="206" y="432" width="16.5" height="40" as="geometry" />
        </mxCell>
        <mxCell id="APk3Ht_Tyn_4InIeWBDC-11" value=":" style="text;html=1;strokeColor=none;fillColor=none;align=center;verticalAlign=middle;whiteSpace=wrap;rounded=0;fontFamily=Times New Roman;" parent="1" vertex="1">
          <mxGeometry x="194" y="432" width="10" height="40" as="geometry" />
        </mxCell>
        <mxCell id="APk3Ht_Tyn_4InIeWBDC-12" value="x=b" style="text;html=1;strokeColor=none;fillColor=none;align=center;verticalAlign=middle;whiteSpace=wrap;rounded=0;fontFamily=Times New Roman;" parent="1" vertex="1">
          <mxGeometry x="320" y="432" width="20" height="40" as="geometry" />
        </mxCell>
        <mxCell id="APk3Ht_Tyn_4InIeWBDC-13" value="if" style="text;html=1;strokeColor=none;fillColor=none;align=center;verticalAlign=middle;whiteSpace=wrap;rounded=0;fontFamily=Times New Roman;" parent="1" vertex="1">
          <mxGeometry x="243" y="432" width="10" height="40" as="geometry" />
        </mxCell>
        <mxCell id="APk3Ht_Tyn_4InIeWBDC-15" value="else" style="text;html=1;strokeColor=none;fillColor=none;align=center;verticalAlign=middle;whiteSpace=wrap;rounded=0;fontFamily=Times New Roman;" parent="1" vertex="1">
          <mxGeometry x="356" y="432" width="20" height="40" as="geometry" />
        </mxCell>
        <mxCell id="APk3Ht_Tyn_4InIeWBDC-16" value="x=a" style="text;html=1;strokeColor=none;fillColor=none;align=center;verticalAlign=middle;whiteSpace=wrap;rounded=0;fontFamily=Times New Roman;" parent="1" vertex="1">
          <mxGeometry x="396" y="432" width="20" height="40" as="geometry" />
        </mxCell>
        <mxCell id="APk3Ht_Tyn_4InIeWBDC-17" value="return x" style="text;html=1;strokeColor=none;fillColor=none;align=center;verticalAlign=middle;whiteSpace=wrap;rounded=0;fontFamily=Times New Roman;" parent="1" vertex="1">
          <mxGeometry x="430" y="432" width="50" height="40" as="geometry" />
        </mxCell>
        <mxCell id="APk3Ht_Tyn_4InIeWBDC-19" value="b&amp;gt;a" style="text;html=1;strokeColor=none;fillColor=none;align=center;verticalAlign=middle;whiteSpace=wrap;rounded=0;fontFamily=Times New Roman;" parent="1" vertex="1">
          <mxGeometry x="279" y="432" width="26" height="40" as="geometry" />
        </mxCell>
        <mxCell id="APk3Ht_Tyn_4InIeWBDC-31" value="E&lt;span style=&quot;font-size: 10px;&quot;&gt;&lt;sub&gt;1&lt;/sub&gt;&lt;/span&gt;" style="rounded=0;whiteSpace=wrap;html=1;fontFamily=Times New Roman;" parent="1" vertex="1">
          <mxGeometry x="71" y="396" width="28" height="20" as="geometry" />
        </mxCell>
        <mxCell id="APk3Ht_Tyn_4InIeWBDC-33" value="E&lt;span style=&quot;font-size: 10px;&quot;&gt;&lt;sub&gt;2&lt;/sub&gt;&lt;/span&gt;" style="rounded=0;whiteSpace=wrap;html=1;fontFamily=Times New Roman;" parent="1" vertex="1">
          <mxGeometry x="114" y="396" width="28" height="20" as="geometry" />
        </mxCell>
        <mxCell id="APk3Ht_Tyn_4InIeWBDC-34" value="E&lt;span style=&quot;font-size: 10px;&quot;&gt;&lt;sub&gt;3&lt;/sub&gt;&lt;/span&gt;" style="rounded=0;whiteSpace=wrap;html=1;fontFamily=Times New Roman;" parent="1" vertex="1">
          <mxGeometry x="157" y="396" width="28" height="20" as="geometry" />
        </mxCell>
        <mxCell id="APk3Ht_Tyn_4InIeWBDC-35" value="E&lt;span style=&quot;font-size: 10px;&quot;&gt;&lt;sub&gt;4&lt;/sub&gt;&lt;/span&gt;" style="rounded=0;whiteSpace=wrap;html=1;fontFamily=Times New Roman;" parent="1" vertex="1">
          <mxGeometry x="198.25" y="396" width="28" height="20" as="geometry" />
        </mxCell>
        <mxCell id="APk3Ht_Tyn_4InIeWBDC-36" value="E&lt;span style=&quot;font-size: 10px;&quot;&gt;&lt;sub&gt;5&lt;/sub&gt;&lt;/span&gt;" style="rounded=0;whiteSpace=wrap;html=1;fontFamily=Times New Roman;" parent="1" vertex="1">
          <mxGeometry x="235" y="396" width="28" height="20" as="geometry" />
        </mxCell>
        <mxCell id="APk3Ht_Tyn_4InIeWBDC-37" value="E&lt;span style=&quot;font-size: 10px;&quot;&gt;&lt;sub&gt;7&lt;/sub&gt;&lt;/span&gt;" style="rounded=0;whiteSpace=wrap;html=1;fontFamily=Times New Roman;" parent="1" vertex="1">
          <mxGeometry x="316" y="396" width="28" height="20" as="geometry" />
        </mxCell>
        <mxCell id="APk3Ht_Tyn_4InIeWBDC-38" value="E&lt;span style=&quot;font-size: 10px;&quot;&gt;&lt;sub&gt;6&lt;/sub&gt;&lt;/span&gt;" style="rounded=0;whiteSpace=wrap;html=1;fontStyle=0;fontFamily=Times New Roman;" parent="1" vertex="1">
          <mxGeometry x="275" y="396" width="28" height="20" as="geometry" />
        </mxCell>
        <mxCell id="APk3Ht_Tyn_4InIeWBDC-39" value="E&lt;span style=&quot;font-size: 10px;&quot;&gt;&lt;sub&gt;8&lt;/sub&gt;&lt;/span&gt;" style="rounded=0;whiteSpace=wrap;html=1;fontFamily=Times New Roman;" parent="1" vertex="1">
          <mxGeometry x="352" y="396" width="28" height="20" as="geometry" />
        </mxCell>
        <mxCell id="APk3Ht_Tyn_4InIeWBDC-40" value="E&lt;span style=&quot;font-size: 10px;&quot;&gt;&lt;sub&gt;9&lt;/sub&gt;&lt;/span&gt;" style="rounded=0;whiteSpace=wrap;html=1;fontFamily=Times New Roman;" parent="1" vertex="1">
          <mxGeometry x="394" y="396" width="28" height="20" as="geometry" />
        </mxCell>
        <mxCell id="APk3Ht_Tyn_4InIeWBDC-41" value="E&lt;span style=&quot;font-size: 10px;&quot;&gt;&lt;sub&gt;10&lt;/sub&gt;&lt;/span&gt;" style="rounded=0;whiteSpace=wrap;html=1;fontFamily=Times New Roman;" parent="1" vertex="1">
          <mxGeometry x="435" y="396" width="28" height="20" as="geometry" />
        </mxCell>
        <mxCell id="APk3Ht_Tyn_4InIeWBDC-53" value="" style="group;fontFamily=Times New Roman;" parent="1" vertex="1" connectable="0">
          <mxGeometry x="70" y="315" width="389" height="20" as="geometry" />
        </mxCell>
        <mxCell id="APk3Ht_Tyn_4InIeWBDC-54" value="" style="ellipse;whiteSpace=wrap;html=1;fillColor=#dae8fc;strokeWidth=1;strokeColor=#6c8ebf;fontFamily=Times New Roman;" parent="APk3Ht_Tyn_4InIeWBDC-53" vertex="1">
          <mxGeometry width="32" height="20" as="geometry" />
        </mxCell>
        <mxCell id="APk3Ht_Tyn_4InIeWBDC-55" value="" style="ellipse;whiteSpace=wrap;html=1;fillColor=#dae8fc;strokeWidth=1;strokeColor=#6c8ebf;fontFamily=Times New Roman;" parent="APk3Ht_Tyn_4InIeWBDC-53" vertex="1">
          <mxGeometry x="45" width="32" height="20" as="geometry" />
        </mxCell>
        <mxCell id="APk3Ht_Tyn_4InIeWBDC-56" value="" style="ellipse;whiteSpace=wrap;html=1;fillColor=#dae8fc;strokeWidth=1;strokeColor=#6c8ebf;fontFamily=Times New Roman;" parent="APk3Ht_Tyn_4InIeWBDC-53" vertex="1">
          <mxGeometry x="134" width="32" height="20" as="geometry" />
        </mxCell>
        <mxCell id="APk3Ht_Tyn_4InIeWBDC-57" value="" style="ellipse;whiteSpace=wrap;html=1;fillColor=#dae8fc;strokeWidth=1;strokeColor=#6c8ebf;fontFamily=Times New Roman;" parent="APk3Ht_Tyn_4InIeWBDC-53" vertex="1">
          <mxGeometry x="89" width="32" height="20" as="geometry" />
        </mxCell>
        <mxCell id="APk3Ht_Tyn_4InIeWBDC-58" value="" style="ellipse;whiteSpace=wrap;html=1;fillColor=#dae8fc;strokeWidth=1;strokeColor=#6c8ebf;fontFamily=Times New Roman;" parent="APk3Ht_Tyn_4InIeWBDC-53" vertex="1">
          <mxGeometry x="179" width="32" height="20" as="geometry" />
        </mxCell>
        <mxCell id="APk3Ht_Tyn_4InIeWBDC-59" value="" style="ellipse;whiteSpace=wrap;html=1;fillColor=#dae8fc;strokeWidth=1;strokeColor=#6c8ebf;fontFamily=Times New Roman;" parent="APk3Ht_Tyn_4InIeWBDC-53" vertex="1">
          <mxGeometry x="268" width="32" height="20" as="geometry" />
        </mxCell>
        <mxCell id="APk3Ht_Tyn_4InIeWBDC-60" value="" style="ellipse;whiteSpace=wrap;html=1;fillColor=#dae8fc;strokeWidth=1;strokeColor=#6c8ebf;fontFamily=Times New Roman;" parent="APk3Ht_Tyn_4InIeWBDC-53" vertex="1">
          <mxGeometry x="223" width="32" height="20" as="geometry" />
        </mxCell>
        <mxCell id="APk3Ht_Tyn_4InIeWBDC-61" value="" style="ellipse;whiteSpace=wrap;html=1;fillColor=#dae8fc;strokeWidth=1;strokeColor=#6c8ebf;fontFamily=Times New Roman;" parent="APk3Ht_Tyn_4InIeWBDC-53" vertex="1">
          <mxGeometry x="312" width="32" height="20" as="geometry" />
        </mxCell>
        <mxCell id="APk3Ht_Tyn_4InIeWBDC-62" value="" style="ellipse;whiteSpace=wrap;html=1;fillColor=#dae8fc;strokeWidth=1;strokeColor=#6c8ebf;fontFamily=Times New Roman;" parent="APk3Ht_Tyn_4InIeWBDC-53" vertex="1">
          <mxGeometry x="357" width="32" height="20" as="geometry" />
        </mxCell>
        <mxCell id="APk3Ht_Tyn_4InIeWBDC-77" style="rounded=0;orthogonalLoop=1;jettySize=auto;html=1;exitX=0.5;exitY=0;exitDx=0;exitDy=0;entryX=0.5;entryY=1;entryDx=0;entryDy=0;endArrow=none;endFill=0;strokeWidth=1;strokeColor=#949494;fontFamily=Times New Roman;" parent="1" source="APk3Ht_Tyn_4InIeWBDC-42" target="APk3Ht_Tyn_4InIeWBDC-54" edge="1">
          <mxGeometry relative="1" as="geometry" />
        </mxCell>
        <mxCell id="APk3Ht_Tyn_4InIeWBDC-78" style="edgeStyle=orthogonalEdgeStyle;rounded=0;orthogonalLoop=1;jettySize=auto;html=1;exitX=0.5;exitY=0;exitDx=0;exitDy=0;entryX=0.5;entryY=1;entryDx=0;entryDy=0;endArrow=none;endFill=0;strokeWidth=1;strokeColor=#949494;fontFamily=Times New Roman;" parent="1" source="APk3Ht_Tyn_4InIeWBDC-43" target="APk3Ht_Tyn_4InIeWBDC-55" edge="1">
          <mxGeometry relative="1" as="geometry" />
        </mxCell>
        <mxCell id="APk3Ht_Tyn_4InIeWBDC-79" style="edgeStyle=orthogonalEdgeStyle;rounded=0;orthogonalLoop=1;jettySize=auto;html=1;exitX=0.5;exitY=0;exitDx=0;exitDy=0;entryX=0.5;entryY=1;entryDx=0;entryDy=0;endArrow=none;endFill=0;strokeWidth=1;strokeColor=#949494;fontFamily=Times New Roman;" parent="1" source="APk3Ht_Tyn_4InIeWBDC-45" target="APk3Ht_Tyn_4InIeWBDC-57" edge="1">
          <mxGeometry relative="1" as="geometry" />
        </mxCell>
        <mxCell id="APk3Ht_Tyn_4InIeWBDC-80" style="edgeStyle=orthogonalEdgeStyle;rounded=0;orthogonalLoop=1;jettySize=auto;html=1;exitX=0.5;exitY=0;exitDx=0;exitDy=0;entryX=0.5;entryY=1;entryDx=0;entryDy=0;endArrow=none;endFill=0;strokeWidth=1;strokeColor=#949494;fontFamily=Times New Roman;" parent="1" source="APk3Ht_Tyn_4InIeWBDC-44" target="APk3Ht_Tyn_4InIeWBDC-56" edge="1">
          <mxGeometry relative="1" as="geometry" />
        </mxCell>
        <mxCell id="APk3Ht_Tyn_4InIeWBDC-82" style="edgeStyle=orthogonalEdgeStyle;rounded=0;orthogonalLoop=1;jettySize=auto;html=1;exitX=0.5;exitY=0;exitDx=0;exitDy=0;entryX=0.5;entryY=1;entryDx=0;entryDy=0;endArrow=none;endFill=0;strokeWidth=1;strokeColor=#949494;fontFamily=Times New Roman;" parent="1" source="APk3Ht_Tyn_4InIeWBDC-46" target="APk3Ht_Tyn_4InIeWBDC-58" edge="1">
          <mxGeometry relative="1" as="geometry" />
        </mxCell>
        <mxCell id="APk3Ht_Tyn_4InIeWBDC-83" style="edgeStyle=orthogonalEdgeStyle;rounded=0;orthogonalLoop=1;jettySize=auto;html=1;exitX=0.5;exitY=0;exitDx=0;exitDy=0;entryX=0.5;entryY=1;entryDx=0;entryDy=0;endArrow=none;endFill=0;strokeWidth=1;strokeColor=#949494;fontFamily=Times New Roman;" parent="1" source="APk3Ht_Tyn_4InIeWBDC-48" target="APk3Ht_Tyn_4InIeWBDC-60" edge="1">
          <mxGeometry relative="1" as="geometry" />
        </mxCell>
        <mxCell id="APk3Ht_Tyn_4InIeWBDC-84" style="edgeStyle=orthogonalEdgeStyle;rounded=0;orthogonalLoop=1;jettySize=auto;html=1;exitX=0.5;exitY=0;exitDx=0;exitDy=0;entryX=0.5;entryY=1;entryDx=0;entryDy=0;endArrow=none;endFill=0;strokeWidth=1;strokeColor=#949494;fontFamily=Times New Roman;" parent="1" source="APk3Ht_Tyn_4InIeWBDC-47" target="APk3Ht_Tyn_4InIeWBDC-59" edge="1">
          <mxGeometry relative="1" as="geometry" />
        </mxCell>
        <mxCell id="APk3Ht_Tyn_4InIeWBDC-85" style="edgeStyle=orthogonalEdgeStyle;rounded=0;orthogonalLoop=1;jettySize=auto;html=1;exitX=0.5;exitY=0;exitDx=0;exitDy=0;entryX=0.5;entryY=1;entryDx=0;entryDy=0;endArrow=none;endFill=0;strokeWidth=1;strokeColor=#949494;fontFamily=Times New Roman;" parent="1" source="APk3Ht_Tyn_4InIeWBDC-49" target="APk3Ht_Tyn_4InIeWBDC-61" edge="1">
          <mxGeometry relative="1" as="geometry" />
        </mxCell>
        <mxCell id="APk3Ht_Tyn_4InIeWBDC-86" style="edgeStyle=orthogonalEdgeStyle;rounded=0;orthogonalLoop=1;jettySize=auto;html=1;exitX=0.5;exitY=0;exitDx=0;exitDy=0;entryX=0.5;entryY=1;entryDx=0;entryDy=0;endArrow=none;endFill=0;strokeWidth=1;strokeColor=#949494;fontFamily=Times New Roman;" parent="1" source="APk3Ht_Tyn_4InIeWBDC-50" target="APk3Ht_Tyn_4InIeWBDC-62" edge="1">
          <mxGeometry relative="1" as="geometry" />
        </mxCell>
        <mxCell id="APk3Ht_Tyn_4InIeWBDC-88" style="edgeStyle=none;rounded=0;orthogonalLoop=1;jettySize=auto;html=1;exitX=0.5;exitY=0;exitDx=0;exitDy=0;entryX=0.5;entryY=1;entryDx=0;entryDy=0;endArrow=none;endFill=0;strokeWidth=1;strokeColor=#949494;fontFamily=Times New Roman;" parent="1" source="APk3Ht_Tyn_4InIeWBDC-42" target="APk3Ht_Tyn_4InIeWBDC-55" edge="1">
          <mxGeometry relative="1" as="geometry" />
        </mxCell>
        <mxCell id="APk3Ht_Tyn_4InIeWBDC-89" style="edgeStyle=none;rounded=0;orthogonalLoop=1;jettySize=auto;html=1;exitX=0.5;exitY=0;exitDx=0;exitDy=0;entryX=0.5;entryY=1;entryDx=0;entryDy=0;endArrow=none;endFill=0;strokeWidth=1;strokeColor=#949494;fontFamily=Times New Roman;" parent="1" source="APk3Ht_Tyn_4InIeWBDC-42" target="APk3Ht_Tyn_4InIeWBDC-57" edge="1">
          <mxGeometry relative="1" as="geometry" />
        </mxCell>
        <mxCell id="APk3Ht_Tyn_4InIeWBDC-90" style="edgeStyle=none;rounded=0;orthogonalLoop=1;jettySize=auto;html=1;exitX=0.5;exitY=0;exitDx=0;exitDy=0;entryX=0.5;entryY=1;entryDx=0;entryDy=0;endArrow=none;endFill=0;strokeWidth=1;strokeColor=#949494;fontFamily=Times New Roman;" parent="1" source="APk3Ht_Tyn_4InIeWBDC-43" target="APk3Ht_Tyn_4InIeWBDC-57" edge="1">
          <mxGeometry relative="1" as="geometry" />
        </mxCell>
        <mxCell id="APk3Ht_Tyn_4InIeWBDC-93" style="edgeStyle=none;rounded=0;orthogonalLoop=1;jettySize=auto;html=1;exitX=0.5;exitY=0;exitDx=0;exitDy=0;entryX=0.5;entryY=1;entryDx=0;entryDy=0;endArrow=none;endFill=0;strokeWidth=1;strokeColor=#949494;fontFamily=Times New Roman;" parent="1" source="APk3Ht_Tyn_4InIeWBDC-45" target="APk3Ht_Tyn_4InIeWBDC-58" edge="1">
          <mxGeometry relative="1" as="geometry" />
        </mxCell>
        <mxCell id="APk3Ht_Tyn_4InIeWBDC-94" style="edgeStyle=none;rounded=0;orthogonalLoop=1;jettySize=auto;html=1;exitX=0.5;exitY=0;exitDx=0;exitDy=0;entryX=0.5;entryY=1;entryDx=0;entryDy=0;endArrow=none;endFill=0;strokeWidth=1;strokeColor=#949494;fontFamily=Times New Roman;" parent="1" source="APk3Ht_Tyn_4InIeWBDC-44" target="APk3Ht_Tyn_4InIeWBDC-58" edge="1">
          <mxGeometry relative="1" as="geometry" />
        </mxCell>
        <mxCell id="APk3Ht_Tyn_4InIeWBDC-95" style="edgeStyle=none;rounded=0;orthogonalLoop=1;jettySize=auto;html=1;exitX=0.5;exitY=0;exitDx=0;exitDy=0;entryX=0.5;entryY=1;entryDx=0;entryDy=0;endArrow=none;endFill=0;strokeWidth=1;strokeColor=#949494;fontFamily=Times New Roman;" parent="1" source="APk3Ht_Tyn_4InIeWBDC-44" target="APk3Ht_Tyn_4InIeWBDC-60" edge="1">
          <mxGeometry relative="1" as="geometry" />
        </mxCell>
        <mxCell id="APk3Ht_Tyn_4InIeWBDC-97" style="edgeStyle=none;rounded=0;orthogonalLoop=1;jettySize=auto;html=1;exitX=0.5;exitY=0;exitDx=0;exitDy=0;entryX=0.5;entryY=1;entryDx=0;entryDy=0;endArrow=none;endFill=0;strokeWidth=1;strokeColor=#949494;fontFamily=Times New Roman;" parent="1" source="APk3Ht_Tyn_4InIeWBDC-46" target="APk3Ht_Tyn_4InIeWBDC-59" edge="1">
          <mxGeometry relative="1" as="geometry" />
        </mxCell>
        <mxCell id="APk3Ht_Tyn_4InIeWBDC-98" style="edgeStyle=none;rounded=0;orthogonalLoop=1;jettySize=auto;html=1;exitX=0.5;exitY=0;exitDx=0;exitDy=0;entryX=0.5;entryY=1;entryDx=0;entryDy=0;endArrow=none;endFill=0;strokeWidth=1;strokeColor=#949494;fontFamily=Times New Roman;" parent="1" source="APk3Ht_Tyn_4InIeWBDC-48" target="APk3Ht_Tyn_4InIeWBDC-59" edge="1">
          <mxGeometry relative="1" as="geometry" />
        </mxCell>
        <mxCell id="APk3Ht_Tyn_4InIeWBDC-99" style="edgeStyle=none;rounded=0;orthogonalLoop=1;jettySize=auto;html=1;exitX=0.5;exitY=0;exitDx=0;exitDy=0;entryX=0.5;entryY=1;entryDx=0;entryDy=0;endArrow=none;endFill=0;strokeWidth=1;strokeColor=#949494;fontFamily=Times New Roman;" parent="1" source="APk3Ht_Tyn_4InIeWBDC-48" target="APk3Ht_Tyn_4InIeWBDC-61" edge="1">
          <mxGeometry relative="1" as="geometry" />
        </mxCell>
        <mxCell id="APk3Ht_Tyn_4InIeWBDC-101" style="edgeStyle=none;rounded=0;orthogonalLoop=1;jettySize=auto;html=1;exitX=0.5;exitY=0;exitDx=0;exitDy=0;entryX=0.5;entryY=1;entryDx=0;entryDy=0;endArrow=none;endFill=0;strokeWidth=1;strokeColor=#949494;fontFamily=Times New Roman;" parent="1" source="APk3Ht_Tyn_4InIeWBDC-47" target="APk3Ht_Tyn_4InIeWBDC-62" edge="1">
          <mxGeometry relative="1" as="geometry" />
        </mxCell>
        <mxCell id="APk3Ht_Tyn_4InIeWBDC-102" style="edgeStyle=none;rounded=0;orthogonalLoop=1;jettySize=auto;html=1;exitX=0.5;exitY=0;exitDx=0;exitDy=0;entryX=0.5;entryY=1;entryDx=0;entryDy=0;endArrow=none;endFill=0;strokeWidth=1;strokeColor=#949494;fontFamily=Times New Roman;" parent="1" source="APk3Ht_Tyn_4InIeWBDC-49" target="APk3Ht_Tyn_4InIeWBDC-62" edge="1">
          <mxGeometry relative="1" as="geometry" />
        </mxCell>
        <mxCell id="APk3Ht_Tyn_4InIeWBDC-103" style="edgeStyle=none;rounded=0;orthogonalLoop=1;jettySize=auto;html=1;exitX=0.5;exitY=0;exitDx=0;exitDy=0;entryX=0.5;entryY=1;entryDx=0;entryDy=0;endArrow=none;endFill=0;strokeWidth=1;strokeColor=#949494;fontFamily=Times New Roman;" parent="1" source="APk3Ht_Tyn_4InIeWBDC-43" target="APk3Ht_Tyn_4InIeWBDC-54" edge="1">
          <mxGeometry relative="1" as="geometry" />
        </mxCell>
        <mxCell id="APk3Ht_Tyn_4InIeWBDC-104" style="edgeStyle=none;rounded=0;orthogonalLoop=1;jettySize=auto;html=1;exitX=0.5;exitY=0;exitDx=0;exitDy=0;entryX=0.5;entryY=1;entryDx=0;entryDy=0;endArrow=none;endFill=0;strokeWidth=1;strokeColor=#949494;fontFamily=Times New Roman;" parent="1" source="APk3Ht_Tyn_4InIeWBDC-45" target="APk3Ht_Tyn_4InIeWBDC-55" edge="1">
          <mxGeometry relative="1" as="geometry" />
        </mxCell>
        <mxCell id="APk3Ht_Tyn_4InIeWBDC-105" style="edgeStyle=none;rounded=0;orthogonalLoop=1;jettySize=auto;html=1;exitX=0.5;exitY=0;exitDx=0;exitDy=0;entryX=0.5;entryY=1;entryDx=0;entryDy=0;endArrow=none;endFill=0;strokeWidth=1;strokeColor=#949494;fontFamily=Times New Roman;" parent="1" source="APk3Ht_Tyn_4InIeWBDC-45" target="APk3Ht_Tyn_4InIeWBDC-54" edge="1">
          <mxGeometry relative="1" as="geometry" />
        </mxCell>
        <mxCell id="APk3Ht_Tyn_4InIeWBDC-106" style="edgeStyle=none;rounded=0;orthogonalLoop=1;jettySize=auto;html=1;exitX=0.5;exitY=0;exitDx=0;exitDy=0;entryX=0.5;entryY=1;entryDx=0;entryDy=0;endArrow=none;endFill=0;strokeWidth=1;strokeColor=#949494;fontFamily=Times New Roman;" parent="1" source="APk3Ht_Tyn_4InIeWBDC-44" target="APk3Ht_Tyn_4InIeWBDC-57" edge="1">
          <mxGeometry relative="1" as="geometry" />
        </mxCell>
        <mxCell id="APk3Ht_Tyn_4InIeWBDC-107" style="edgeStyle=none;rounded=0;orthogonalLoop=1;jettySize=auto;html=1;exitX=0.5;exitY=0;exitDx=0;exitDy=0;entryX=0.5;entryY=1;entryDx=0;entryDy=0;endArrow=none;endFill=0;strokeWidth=1;strokeColor=#949494;fontFamily=Times New Roman;" parent="1" source="APk3Ht_Tyn_4InIeWBDC-44" target="APk3Ht_Tyn_4InIeWBDC-55" edge="1">
          <mxGeometry relative="1" as="geometry" />
        </mxCell>
        <mxCell id="APk3Ht_Tyn_4InIeWBDC-108" style="edgeStyle=none;rounded=0;orthogonalLoop=1;jettySize=auto;html=1;exitX=0.5;exitY=0;exitDx=0;exitDy=0;entryX=0.5;entryY=1;entryDx=0;entryDy=0;endArrow=none;endFill=0;strokeWidth=1;strokeColor=#949494;fontFamily=Times New Roman;" parent="1" source="APk3Ht_Tyn_4InIeWBDC-46" target="APk3Ht_Tyn_4InIeWBDC-56" edge="1">
          <mxGeometry relative="1" as="geometry" />
        </mxCell>
        <mxCell id="APk3Ht_Tyn_4InIeWBDC-109" style="edgeStyle=none;rounded=0;orthogonalLoop=1;jettySize=auto;html=1;exitX=0.5;exitY=0;exitDx=0;exitDy=0;entryX=0.5;entryY=1;entryDx=0;entryDy=0;endArrow=none;endFill=0;strokeWidth=1;strokeColor=#949494;fontFamily=Times New Roman;" parent="1" source="APk3Ht_Tyn_4InIeWBDC-46" target="APk3Ht_Tyn_4InIeWBDC-57" edge="1">
          <mxGeometry relative="1" as="geometry" />
        </mxCell>
        <mxCell id="APk3Ht_Tyn_4InIeWBDC-110" style="edgeStyle=none;rounded=0;orthogonalLoop=1;jettySize=auto;html=1;exitX=0.5;exitY=0;exitDx=0;exitDy=0;entryX=0.5;entryY=1;entryDx=0;entryDy=0;endArrow=none;endFill=0;strokeWidth=1;strokeColor=#949494;fontFamily=Times New Roman;" parent="1" source="APk3Ht_Tyn_4InIeWBDC-48" target="APk3Ht_Tyn_4InIeWBDC-58" edge="1">
          <mxGeometry relative="1" as="geometry" />
        </mxCell>
        <mxCell id="APk3Ht_Tyn_4InIeWBDC-111" style="edgeStyle=none;rounded=0;orthogonalLoop=1;jettySize=auto;html=1;exitX=0.5;exitY=0;exitDx=0;exitDy=0;entryX=0.5;entryY=1;entryDx=0;entryDy=0;endArrow=none;endFill=0;strokeWidth=1;strokeColor=#949494;fontFamily=Times New Roman;" parent="1" source="APk3Ht_Tyn_4InIeWBDC-48" target="APk3Ht_Tyn_4InIeWBDC-56" edge="1">
          <mxGeometry relative="1" as="geometry" />
        </mxCell>
        <mxCell id="APk3Ht_Tyn_4InIeWBDC-112" style="edgeStyle=none;rounded=0;orthogonalLoop=1;jettySize=auto;html=1;exitX=0.5;exitY=0;exitDx=0;exitDy=0;entryX=0.5;entryY=1;entryDx=0;entryDy=0;endArrow=none;endFill=0;strokeWidth=1;strokeColor=#949494;fontFamily=Times New Roman;" parent="1" source="APk3Ht_Tyn_4InIeWBDC-47" target="APk3Ht_Tyn_4InIeWBDC-60" edge="1">
          <mxGeometry relative="1" as="geometry" />
        </mxCell>
        <mxCell id="APk3Ht_Tyn_4InIeWBDC-113" style="edgeStyle=none;rounded=0;orthogonalLoop=1;jettySize=auto;html=1;exitX=0.5;exitY=0;exitDx=0;exitDy=0;entryX=0.5;entryY=1;entryDx=0;entryDy=0;endArrow=none;endFill=0;strokeWidth=1;strokeColor=#949494;fontFamily=Times New Roman;" parent="1" source="APk3Ht_Tyn_4InIeWBDC-47" target="APk3Ht_Tyn_4InIeWBDC-58" edge="1">
          <mxGeometry relative="1" as="geometry" />
        </mxCell>
        <mxCell id="APk3Ht_Tyn_4InIeWBDC-114" style="edgeStyle=none;rounded=0;orthogonalLoop=1;jettySize=auto;html=1;exitX=0.5;exitY=0;exitDx=0;exitDy=0;entryX=0.5;entryY=1;entryDx=0;entryDy=0;endArrow=none;endFill=0;strokeWidth=1;strokeColor=#949494;fontFamily=Times New Roman;" parent="1" source="APk3Ht_Tyn_4InIeWBDC-49" target="APk3Ht_Tyn_4InIeWBDC-59" edge="1">
          <mxGeometry relative="1" as="geometry" />
        </mxCell>
        <mxCell id="APk3Ht_Tyn_4InIeWBDC-115" style="edgeStyle=none;rounded=0;orthogonalLoop=1;jettySize=auto;html=1;exitX=0.5;exitY=0;exitDx=0;exitDy=0;entryX=0.5;entryY=1;entryDx=0;entryDy=0;endArrow=none;endFill=0;strokeWidth=1;strokeColor=#949494;fontFamily=Times New Roman;" parent="1" source="APk3Ht_Tyn_4InIeWBDC-49" target="APk3Ht_Tyn_4InIeWBDC-60" edge="1">
          <mxGeometry relative="1" as="geometry" />
        </mxCell>
        <mxCell id="APk3Ht_Tyn_4InIeWBDC-116" style="edgeStyle=none;rounded=0;orthogonalLoop=1;jettySize=auto;html=1;exitX=0.5;exitY=0;exitDx=0;exitDy=0;entryX=0.5;entryY=1;entryDx=0;entryDy=0;endArrow=none;endFill=0;strokeWidth=1;strokeColor=#949494;fontFamily=Times New Roman;" parent="1" source="APk3Ht_Tyn_4InIeWBDC-50" target="APk3Ht_Tyn_4InIeWBDC-61" edge="1">
          <mxGeometry relative="1" as="geometry" />
        </mxCell>
        <mxCell id="APk3Ht_Tyn_4InIeWBDC-117" style="edgeStyle=none;rounded=0;orthogonalLoop=1;jettySize=auto;html=1;exitX=0.5;exitY=0;exitDx=0;exitDy=0;entryX=0.5;entryY=1;entryDx=0;entryDy=0;endArrow=none;endFill=0;strokeWidth=1;strokeColor=#949494;fontFamily=Times New Roman;" parent="1" source="APk3Ht_Tyn_4InIeWBDC-50" target="APk3Ht_Tyn_4InIeWBDC-59" edge="1">
          <mxGeometry relative="1" as="geometry" />
        </mxCell>
        <mxCell id="APk3Ht_Tyn_4InIeWBDC-159" value="" style="rounded=0;whiteSpace=wrap;html=1;fontFamily=Times New Roman;fillColor=#D4E1F5;strokeColor=#000000;" parent="1" vertex="1">
          <mxGeometry x="198.5" y="204" width="22" height="20" as="geometry" />
        </mxCell>
        <mxCell id="APk3Ht_Tyn_4InIeWBDC-160" value="" style="rounded=0;whiteSpace=wrap;html=1;fontFamily=Times New Roman;fillColor=#F8CECC;fillStyle=auto;strokeColor=#000000;" parent="1" vertex="1">
          <mxGeometry x="220.5" y="204" width="22" height="20" as="geometry" />
        </mxCell>
        <mxCell id="APk3Ht_Tyn_4InIeWBDC-161" value="" style="rounded=0;whiteSpace=wrap;html=1;fontFamily=Times New Roman;fillColor=#FDCCFF;strokeColor=#000000;" parent="1" vertex="1">
          <mxGeometry x="242.5" y="204" width="22" height="20" as="geometry" />
        </mxCell>
        <mxCell id="APk3Ht_Tyn_4InIeWBDC-162" value="" style="rounded=0;whiteSpace=wrap;html=1;fontFamily=Times New Roman;fillColor=#FFCCE6;strokeColor=#000000;" parent="1" vertex="1">
          <mxGeometry x="264.5" y="204" width="22" height="20" as="geometry" />
        </mxCell>
        <mxCell id="APk3Ht_Tyn_4InIeWBDC-163" value="" style="rounded=0;whiteSpace=wrap;html=1;fontFamily=Times New Roman;fillColor=#FFF2CC;strokeColor=#000000;" parent="1" vertex="1">
          <mxGeometry x="286.5" y="204" width="22" height="20" as="geometry" />
        </mxCell>
        <mxCell id="APk3Ht_Tyn_4InIeWBDC-164" value="" style="rounded=0;whiteSpace=wrap;html=1;fontFamily=Times New Roman;fillColor=#CCFFFF;strokeColor=#000000;" parent="1" vertex="1">
          <mxGeometry x="308.5" y="204" width="22" height="20" as="geometry" />
        </mxCell>
        <mxCell id="APk3Ht_Tyn_4InIeWBDC-165" value="" style="rounded=1;whiteSpace=wrap;html=1;dashed=1;dashPattern=8 8;fillColor=none;strokeColor=#5E5E5E;fontFamily=Times New Roman;" parent="1" vertex="1">
          <mxGeometry x="60" y="260" width="430" height="30" as="geometry" />
        </mxCell>
        <mxCell id="APk3Ht_Tyn_4InIeWBDC-168" value="L12" style="text;html=1;strokeColor=none;fillColor=none;align=center;verticalAlign=middle;whiteSpace=wrap;rounded=0;fontFamily=Times New Roman;" parent="1" vertex="1">
          <mxGeometry x="445" y="259" width="60" height="30" as="geometry" />
        </mxCell>
        <mxCell id="APk3Ht_Tyn_4InIeWBDC-171" value="&lt;font style=&quot;font-size: 19px;&quot;&gt;...&lt;/font&gt;" style="text;html=1;strokeColor=none;fillColor=none;align=center;verticalAlign=middle;whiteSpace=wrap;rounded=0;strokeWidth=6;fontFamily=Times New Roman;" parent="1" vertex="1">
          <mxGeometry x="444.8" y="280" width="60" height="30" as="geometry" />
        </mxCell>
        <mxCell id="APk3Ht_Tyn_4InIeWBDC-172" value="" style="group;fontFamily=Times New Roman;" parent="1" vertex="1" connectable="0">
          <mxGeometry x="85.80000000000001" y="285" width="357" height="30" as="geometry" />
        </mxCell>
        <mxCell id="APk3Ht_Tyn_4InIeWBDC-118" style="edgeStyle=none;rounded=0;orthogonalLoop=1;jettySize=auto;html=1;exitX=0.5;exitY=0;exitDx=0;exitDy=0;endArrow=none;endFill=0;strokeWidth=1;strokeColor=#949494;fontFamily=Times New Roman;" parent="APk3Ht_Tyn_4InIeWBDC-172" edge="1">
          <mxGeometry relative="1" as="geometry">
            <mxPoint x="134" as="targetPoint" />
            <mxPoint x="45" y="30" as="sourcePoint" />
          </mxGeometry>
        </mxCell>
        <mxCell id="APk3Ht_Tyn_4InIeWBDC-119" style="edgeStyle=none;rounded=0;orthogonalLoop=1;jettySize=auto;html=1;exitX=0.5;exitY=0;exitDx=0;exitDy=0;endArrow=none;endFill=0;strokeWidth=1;strokeColor=#949494;fontFamily=Times New Roman;" parent="APk3Ht_Tyn_4InIeWBDC-172" edge="1">
          <mxGeometry relative="1" as="geometry">
            <mxPoint x="134" as="targetPoint" />
            <mxPoint x="89" y="30" as="sourcePoint" />
          </mxGeometry>
        </mxCell>
        <mxCell id="APk3Ht_Tyn_4InIeWBDC-120" style="edgeStyle=none;rounded=0;orthogonalLoop=1;jettySize=auto;html=1;exitX=0.5;exitY=0;exitDx=0;exitDy=0;endArrow=none;endFill=0;strokeWidth=1;strokeColor=#949494;fontFamily=Times New Roman;" parent="APk3Ht_Tyn_4InIeWBDC-172" edge="1">
          <mxGeometry relative="1" as="geometry">
            <mxPoint x="224" as="targetPoint" />
            <mxPoint x="179" y="30" as="sourcePoint" />
          </mxGeometry>
        </mxCell>
        <mxCell id="APk3Ht_Tyn_4InIeWBDC-121" style="edgeStyle=none;rounded=0;orthogonalLoop=1;jettySize=auto;html=1;exitX=0.5;exitY=0;exitDx=0;exitDy=0;endArrow=none;endFill=0;strokeWidth=1;strokeColor=#949494;fontFamily=Times New Roman;" parent="APk3Ht_Tyn_4InIeWBDC-172" edge="1">
          <mxGeometry relative="1" as="geometry">
            <mxPoint x="314" as="targetPoint" />
            <mxPoint x="268" y="30" as="sourcePoint" />
          </mxGeometry>
        </mxCell>
        <mxCell id="APk3Ht_Tyn_4InIeWBDC-122" style="rounded=0;orthogonalLoop=1;jettySize=auto;html=1;exitX=0.5;exitY=0;exitDx=0;exitDy=0;entryX=0.5;entryY=1;entryDx=0;entryDy=0;endArrow=none;endFill=0;strokeWidth=1;strokeColor=#949494;fontFamily=Times New Roman;" parent="APk3Ht_Tyn_4InIeWBDC-172" edge="1">
          <mxGeometry relative="1" as="geometry">
            <mxPoint y="30" as="sourcePoint" />
            <mxPoint as="targetPoint" />
          </mxGeometry>
        </mxCell>
        <mxCell id="APk3Ht_Tyn_4InIeWBDC-123" style="edgeStyle=orthogonalEdgeStyle;rounded=0;orthogonalLoop=1;jettySize=auto;html=1;exitX=0.5;exitY=0;exitDx=0;exitDy=0;entryX=0.5;entryY=1;entryDx=0;entryDy=0;endArrow=none;endFill=0;strokeWidth=1;strokeColor=#949494;fontFamily=Times New Roman;" parent="APk3Ht_Tyn_4InIeWBDC-172" edge="1">
          <mxGeometry relative="1" as="geometry">
            <mxPoint x="45" y="30" as="sourcePoint" />
            <mxPoint x="45" as="targetPoint" />
          </mxGeometry>
        </mxCell>
        <mxCell id="APk3Ht_Tyn_4InIeWBDC-124" style="edgeStyle=orthogonalEdgeStyle;rounded=0;orthogonalLoop=1;jettySize=auto;html=1;exitX=0.5;exitY=0;exitDx=0;exitDy=0;entryX=0.5;entryY=1;entryDx=0;entryDy=0;endArrow=none;endFill=0;strokeWidth=1;strokeColor=#949494;fontFamily=Times New Roman;" parent="APk3Ht_Tyn_4InIeWBDC-172" edge="1">
          <mxGeometry relative="1" as="geometry">
            <mxPoint x="89" y="30" as="sourcePoint" />
            <mxPoint x="89" as="targetPoint" />
          </mxGeometry>
        </mxCell>
        <mxCell id="APk3Ht_Tyn_4InIeWBDC-125" style="edgeStyle=orthogonalEdgeStyle;rounded=0;orthogonalLoop=1;jettySize=auto;html=1;exitX=0.5;exitY=0;exitDx=0;exitDy=0;entryX=0.5;entryY=1;entryDx=0;entryDy=0;endArrow=none;endFill=0;strokeWidth=1;strokeColor=#949494;fontFamily=Times New Roman;" parent="APk3Ht_Tyn_4InIeWBDC-172" edge="1">
          <mxGeometry relative="1" as="geometry">
            <mxPoint x="134" y="30" as="sourcePoint" />
            <mxPoint x="134" as="targetPoint" />
          </mxGeometry>
        </mxCell>
        <mxCell id="APk3Ht_Tyn_4InIeWBDC-126" style="edgeStyle=orthogonalEdgeStyle;rounded=0;orthogonalLoop=1;jettySize=auto;html=1;exitX=0.5;exitY=0;exitDx=0;exitDy=0;entryX=0.5;entryY=1;entryDx=0;entryDy=0;endArrow=none;endFill=0;strokeWidth=1;strokeColor=#949494;fontFamily=Times New Roman;" parent="APk3Ht_Tyn_4InIeWBDC-172" edge="1">
          <mxGeometry relative="1" as="geometry">
            <mxPoint x="179" y="30" as="sourcePoint" />
            <mxPoint x="179" as="targetPoint" />
          </mxGeometry>
        </mxCell>
        <mxCell id="APk3Ht_Tyn_4InIeWBDC-127" style="edgeStyle=orthogonalEdgeStyle;rounded=0;orthogonalLoop=1;jettySize=auto;html=1;exitX=0.5;exitY=0;exitDx=0;exitDy=0;entryX=0.5;entryY=1;entryDx=0;entryDy=0;endArrow=none;endFill=0;strokeWidth=1;strokeColor=#949494;fontFamily=Times New Roman;" parent="APk3Ht_Tyn_4InIeWBDC-172" edge="1">
          <mxGeometry relative="1" as="geometry">
            <mxPoint x="223" y="30" as="sourcePoint" />
            <mxPoint x="223" as="targetPoint" />
          </mxGeometry>
        </mxCell>
        <mxCell id="APk3Ht_Tyn_4InIeWBDC-128" style="edgeStyle=orthogonalEdgeStyle;rounded=0;orthogonalLoop=1;jettySize=auto;html=1;exitX=0.5;exitY=0;exitDx=0;exitDy=0;entryX=0.5;entryY=1;entryDx=0;entryDy=0;endArrow=none;endFill=0;strokeWidth=1;strokeColor=#949494;fontFamily=Times New Roman;" parent="APk3Ht_Tyn_4InIeWBDC-172" edge="1">
          <mxGeometry relative="1" as="geometry">
            <mxPoint x="268" y="30" as="sourcePoint" />
            <mxPoint x="268" as="targetPoint" />
          </mxGeometry>
        </mxCell>
        <mxCell id="APk3Ht_Tyn_4InIeWBDC-129" style="edgeStyle=orthogonalEdgeStyle;rounded=0;orthogonalLoop=1;jettySize=auto;html=1;exitX=0.5;exitY=0;exitDx=0;exitDy=0;entryX=0.5;entryY=1;entryDx=0;entryDy=0;endArrow=none;endFill=0;strokeWidth=1;strokeColor=#949494;fontFamily=Times New Roman;" parent="APk3Ht_Tyn_4InIeWBDC-172" edge="1">
          <mxGeometry relative="1" as="geometry">
            <mxPoint x="312" y="30" as="sourcePoint" />
            <mxPoint x="312" as="targetPoint" />
          </mxGeometry>
        </mxCell>
        <mxCell id="APk3Ht_Tyn_4InIeWBDC-130" style="edgeStyle=orthogonalEdgeStyle;rounded=0;orthogonalLoop=1;jettySize=auto;html=1;exitX=0.5;exitY=0;exitDx=0;exitDy=0;entryX=0.5;entryY=1;entryDx=0;entryDy=0;endArrow=none;endFill=0;strokeWidth=1;strokeColor=#949494;fontFamily=Times New Roman;" parent="APk3Ht_Tyn_4InIeWBDC-172" edge="1">
          <mxGeometry relative="1" as="geometry">
            <mxPoint x="357" y="30" as="sourcePoint" />
            <mxPoint x="357" as="targetPoint" />
          </mxGeometry>
        </mxCell>
        <mxCell id="APk3Ht_Tyn_4InIeWBDC-131" style="edgeStyle=none;rounded=0;orthogonalLoop=1;jettySize=auto;html=1;exitX=0.5;exitY=0;exitDx=0;exitDy=0;entryX=0.5;entryY=1;entryDx=0;entryDy=0;endArrow=none;endFill=0;strokeWidth=1;strokeColor=#949494;fontFamily=Times New Roman;" parent="APk3Ht_Tyn_4InIeWBDC-172" edge="1">
          <mxGeometry relative="1" as="geometry">
            <mxPoint y="30" as="sourcePoint" />
            <mxPoint x="45" as="targetPoint" />
          </mxGeometry>
        </mxCell>
        <mxCell id="APk3Ht_Tyn_4InIeWBDC-132" style="edgeStyle=none;rounded=0;orthogonalLoop=1;jettySize=auto;html=1;exitX=0.5;exitY=0;exitDx=0;exitDy=0;entryX=0.5;entryY=1;entryDx=0;entryDy=0;endArrow=none;endFill=0;strokeWidth=1;strokeColor=#949494;fontFamily=Times New Roman;" parent="APk3Ht_Tyn_4InIeWBDC-172" edge="1">
          <mxGeometry relative="1" as="geometry">
            <mxPoint y="30" as="sourcePoint" />
            <mxPoint x="89" as="targetPoint" />
          </mxGeometry>
        </mxCell>
        <mxCell id="APk3Ht_Tyn_4InIeWBDC-133" style="edgeStyle=none;rounded=0;orthogonalLoop=1;jettySize=auto;html=1;exitX=0.5;exitY=0;exitDx=0;exitDy=0;entryX=0.5;entryY=1;entryDx=0;entryDy=0;endArrow=none;endFill=0;strokeWidth=1;strokeColor=#949494;fontFamily=Times New Roman;" parent="APk3Ht_Tyn_4InIeWBDC-172" edge="1">
          <mxGeometry relative="1" as="geometry">
            <mxPoint x="45" y="30" as="sourcePoint" />
            <mxPoint x="89" as="targetPoint" />
          </mxGeometry>
        </mxCell>
        <mxCell id="APk3Ht_Tyn_4InIeWBDC-134" style="edgeStyle=none;rounded=0;orthogonalLoop=1;jettySize=auto;html=1;exitX=0.5;exitY=0;exitDx=0;exitDy=0;entryX=0.5;entryY=1;entryDx=0;entryDy=0;endArrow=none;endFill=0;strokeWidth=1;strokeColor=#949494;fontFamily=Times New Roman;" parent="APk3Ht_Tyn_4InIeWBDC-172" edge="1">
          <mxGeometry relative="1" as="geometry">
            <mxPoint x="89" y="30" as="sourcePoint" />
            <mxPoint x="179" as="targetPoint" />
          </mxGeometry>
        </mxCell>
        <mxCell id="APk3Ht_Tyn_4InIeWBDC-135" style="edgeStyle=none;rounded=0;orthogonalLoop=1;jettySize=auto;html=1;exitX=0.5;exitY=0;exitDx=0;exitDy=0;entryX=0.5;entryY=1;entryDx=0;entryDy=0;endArrow=none;endFill=0;strokeWidth=1;strokeColor=#949494;fontFamily=Times New Roman;" parent="APk3Ht_Tyn_4InIeWBDC-172" edge="1">
          <mxGeometry relative="1" as="geometry">
            <mxPoint x="134" y="30" as="sourcePoint" />
            <mxPoint x="179" as="targetPoint" />
          </mxGeometry>
        </mxCell>
        <mxCell id="APk3Ht_Tyn_4InIeWBDC-136" style="edgeStyle=none;rounded=0;orthogonalLoop=1;jettySize=auto;html=1;exitX=0.5;exitY=0;exitDx=0;exitDy=0;entryX=0.5;entryY=1;entryDx=0;entryDy=0;endArrow=none;endFill=0;strokeWidth=1;strokeColor=#949494;fontFamily=Times New Roman;" parent="APk3Ht_Tyn_4InIeWBDC-172" edge="1">
          <mxGeometry relative="1" as="geometry">
            <mxPoint x="134" y="30" as="sourcePoint" />
            <mxPoint x="223" as="targetPoint" />
          </mxGeometry>
        </mxCell>
        <mxCell id="APk3Ht_Tyn_4InIeWBDC-137" style="edgeStyle=none;rounded=0;orthogonalLoop=1;jettySize=auto;html=1;exitX=0.5;exitY=0;exitDx=0;exitDy=0;entryX=0.5;entryY=1;entryDx=0;entryDy=0;endArrow=none;endFill=0;strokeWidth=1;strokeColor=#949494;fontFamily=Times New Roman;" parent="APk3Ht_Tyn_4InIeWBDC-172" edge="1">
          <mxGeometry relative="1" as="geometry">
            <mxPoint x="179" y="30" as="sourcePoint" />
            <mxPoint x="268" as="targetPoint" />
          </mxGeometry>
        </mxCell>
        <mxCell id="APk3Ht_Tyn_4InIeWBDC-138" style="edgeStyle=none;rounded=0;orthogonalLoop=1;jettySize=auto;html=1;exitX=0.5;exitY=0;exitDx=0;exitDy=0;entryX=0.5;entryY=1;entryDx=0;entryDy=0;endArrow=none;endFill=0;strokeWidth=1;strokeColor=#949494;fontFamily=Times New Roman;" parent="APk3Ht_Tyn_4InIeWBDC-172" edge="1">
          <mxGeometry relative="1" as="geometry">
            <mxPoint x="223" y="30" as="sourcePoint" />
            <mxPoint x="268" as="targetPoint" />
          </mxGeometry>
        </mxCell>
        <mxCell id="APk3Ht_Tyn_4InIeWBDC-139" style="edgeStyle=none;rounded=0;orthogonalLoop=1;jettySize=auto;html=1;exitX=0.5;exitY=0;exitDx=0;exitDy=0;entryX=0.5;entryY=1;entryDx=0;entryDy=0;endArrow=none;endFill=0;strokeWidth=1;strokeColor=#949494;fontFamily=Times New Roman;" parent="APk3Ht_Tyn_4InIeWBDC-172" edge="1">
          <mxGeometry relative="1" as="geometry">
            <mxPoint x="223" y="30" as="sourcePoint" />
            <mxPoint x="312" as="targetPoint" />
          </mxGeometry>
        </mxCell>
        <mxCell id="APk3Ht_Tyn_4InIeWBDC-140" style="edgeStyle=none;rounded=0;orthogonalLoop=1;jettySize=auto;html=1;exitX=0.5;exitY=0;exitDx=0;exitDy=0;entryX=0.5;entryY=1;entryDx=0;entryDy=0;endArrow=none;endFill=0;strokeWidth=1;strokeColor=#949494;fontFamily=Times New Roman;" parent="APk3Ht_Tyn_4InIeWBDC-172" edge="1">
          <mxGeometry relative="1" as="geometry">
            <mxPoint x="268" y="30" as="sourcePoint" />
            <mxPoint x="357" as="targetPoint" />
          </mxGeometry>
        </mxCell>
        <mxCell id="APk3Ht_Tyn_4InIeWBDC-141" style="edgeStyle=none;rounded=0;orthogonalLoop=1;jettySize=auto;html=1;exitX=0.5;exitY=0;exitDx=0;exitDy=0;entryX=0.5;entryY=1;entryDx=0;entryDy=0;endArrow=none;endFill=0;strokeWidth=1;strokeColor=#949494;fontFamily=Times New Roman;" parent="APk3Ht_Tyn_4InIeWBDC-172" edge="1">
          <mxGeometry relative="1" as="geometry">
            <mxPoint x="312" y="30" as="sourcePoint" />
            <mxPoint x="357" as="targetPoint" />
          </mxGeometry>
        </mxCell>
        <mxCell id="APk3Ht_Tyn_4InIeWBDC-142" style="edgeStyle=none;rounded=0;orthogonalLoop=1;jettySize=auto;html=1;exitX=0.5;exitY=0;exitDx=0;exitDy=0;entryX=0.5;entryY=1;entryDx=0;entryDy=0;endArrow=none;endFill=0;strokeWidth=1;strokeColor=#949494;fontFamily=Times New Roman;" parent="APk3Ht_Tyn_4InIeWBDC-172" edge="1">
          <mxGeometry relative="1" as="geometry">
            <mxPoint x="45" y="30" as="sourcePoint" />
            <mxPoint as="targetPoint" />
          </mxGeometry>
        </mxCell>
        <mxCell id="APk3Ht_Tyn_4InIeWBDC-143" style="edgeStyle=none;rounded=0;orthogonalLoop=1;jettySize=auto;html=1;exitX=0.5;exitY=0;exitDx=0;exitDy=0;entryX=0.5;entryY=1;entryDx=0;entryDy=0;endArrow=none;endFill=0;strokeWidth=1;strokeColor=#949494;fontFamily=Times New Roman;" parent="APk3Ht_Tyn_4InIeWBDC-172" edge="1">
          <mxGeometry relative="1" as="geometry">
            <mxPoint x="89" y="30" as="sourcePoint" />
            <mxPoint x="45" as="targetPoint" />
          </mxGeometry>
        </mxCell>
        <mxCell id="APk3Ht_Tyn_4InIeWBDC-144" style="edgeStyle=none;rounded=0;orthogonalLoop=1;jettySize=auto;html=1;exitX=0.5;exitY=0;exitDx=0;exitDy=0;entryX=0.5;entryY=1;entryDx=0;entryDy=0;endArrow=none;endFill=0;strokeWidth=1;strokeColor=#949494;fontFamily=Times New Roman;" parent="APk3Ht_Tyn_4InIeWBDC-172" edge="1">
          <mxGeometry relative="1" as="geometry">
            <mxPoint x="89" y="30" as="sourcePoint" />
            <mxPoint as="targetPoint" />
          </mxGeometry>
        </mxCell>
        <mxCell id="APk3Ht_Tyn_4InIeWBDC-145" style="edgeStyle=none;rounded=0;orthogonalLoop=1;jettySize=auto;html=1;exitX=0.5;exitY=0;exitDx=0;exitDy=0;entryX=0.5;entryY=1;entryDx=0;entryDy=0;endArrow=none;endFill=0;strokeWidth=1;strokeColor=#949494;fontFamily=Times New Roman;" parent="APk3Ht_Tyn_4InIeWBDC-172" edge="1">
          <mxGeometry relative="1" as="geometry">
            <mxPoint x="134" y="30" as="sourcePoint" />
            <mxPoint x="89" as="targetPoint" />
          </mxGeometry>
        </mxCell>
        <mxCell id="APk3Ht_Tyn_4InIeWBDC-146" style="edgeStyle=none;rounded=0;orthogonalLoop=1;jettySize=auto;html=1;exitX=0.5;exitY=0;exitDx=0;exitDy=0;entryX=0.5;entryY=1;entryDx=0;entryDy=0;endArrow=none;endFill=0;strokeWidth=1;strokeColor=#949494;fontFamily=Times New Roman;" parent="APk3Ht_Tyn_4InIeWBDC-172" edge="1">
          <mxGeometry relative="1" as="geometry">
            <mxPoint x="134" y="30" as="sourcePoint" />
            <mxPoint x="45" as="targetPoint" />
          </mxGeometry>
        </mxCell>
        <mxCell id="APk3Ht_Tyn_4InIeWBDC-147" style="edgeStyle=none;rounded=0;orthogonalLoop=1;jettySize=auto;html=1;exitX=0.5;exitY=0;exitDx=0;exitDy=0;entryX=0.5;entryY=1;entryDx=0;entryDy=0;endArrow=none;endFill=0;strokeWidth=1;strokeColor=#949494;fontFamily=Times New Roman;" parent="APk3Ht_Tyn_4InIeWBDC-172" edge="1">
          <mxGeometry relative="1" as="geometry">
            <mxPoint x="179" y="30" as="sourcePoint" />
            <mxPoint x="134" as="targetPoint" />
          </mxGeometry>
        </mxCell>
        <mxCell id="APk3Ht_Tyn_4InIeWBDC-148" style="edgeStyle=none;rounded=0;orthogonalLoop=1;jettySize=auto;html=1;exitX=0.5;exitY=0;exitDx=0;exitDy=0;entryX=0.5;entryY=1;entryDx=0;entryDy=0;endArrow=none;endFill=0;strokeWidth=1;strokeColor=#949494;fontFamily=Times New Roman;" parent="APk3Ht_Tyn_4InIeWBDC-172" edge="1">
          <mxGeometry relative="1" as="geometry">
            <mxPoint x="179" y="30" as="sourcePoint" />
            <mxPoint x="89" as="targetPoint" />
          </mxGeometry>
        </mxCell>
        <mxCell id="APk3Ht_Tyn_4InIeWBDC-149" style="edgeStyle=none;rounded=0;orthogonalLoop=1;jettySize=auto;html=1;exitX=0.5;exitY=0;exitDx=0;exitDy=0;entryX=0.5;entryY=1;entryDx=0;entryDy=0;endArrow=none;endFill=0;strokeWidth=1;strokeColor=#949494;fontFamily=Times New Roman;" parent="APk3Ht_Tyn_4InIeWBDC-172" edge="1">
          <mxGeometry relative="1" as="geometry">
            <mxPoint x="223" y="30" as="sourcePoint" />
            <mxPoint x="179" as="targetPoint" />
          </mxGeometry>
        </mxCell>
        <mxCell id="APk3Ht_Tyn_4InIeWBDC-150" style="edgeStyle=none;rounded=0;orthogonalLoop=1;jettySize=auto;html=1;exitX=0.5;exitY=0;exitDx=0;exitDy=0;entryX=0.5;entryY=1;entryDx=0;entryDy=0;endArrow=none;endFill=0;strokeWidth=1;strokeColor=#949494;fontFamily=Times New Roman;" parent="APk3Ht_Tyn_4InIeWBDC-172" edge="1">
          <mxGeometry relative="1" as="geometry">
            <mxPoint x="223" y="30" as="sourcePoint" />
            <mxPoint x="134" as="targetPoint" />
          </mxGeometry>
        </mxCell>
        <mxCell id="APk3Ht_Tyn_4InIeWBDC-151" style="edgeStyle=none;rounded=0;orthogonalLoop=1;jettySize=auto;html=1;exitX=0.5;exitY=0;exitDx=0;exitDy=0;entryX=0.5;entryY=1;entryDx=0;entryDy=0;endArrow=none;endFill=0;strokeWidth=1;strokeColor=#949494;fontFamily=Times New Roman;" parent="APk3Ht_Tyn_4InIeWBDC-172" edge="1">
          <mxGeometry relative="1" as="geometry">
            <mxPoint x="268" y="30" as="sourcePoint" />
            <mxPoint x="223" as="targetPoint" />
          </mxGeometry>
        </mxCell>
        <mxCell id="APk3Ht_Tyn_4InIeWBDC-152" style="edgeStyle=none;rounded=0;orthogonalLoop=1;jettySize=auto;html=1;exitX=0.5;exitY=0;exitDx=0;exitDy=0;entryX=0.5;entryY=1;entryDx=0;entryDy=0;endArrow=none;endFill=0;strokeWidth=1;strokeColor=#949494;fontFamily=Times New Roman;" parent="APk3Ht_Tyn_4InIeWBDC-172" edge="1">
          <mxGeometry relative="1" as="geometry">
            <mxPoint x="268" y="30" as="sourcePoint" />
            <mxPoint x="179" as="targetPoint" />
          </mxGeometry>
        </mxCell>
        <mxCell id="APk3Ht_Tyn_4InIeWBDC-153" style="edgeStyle=none;rounded=0;orthogonalLoop=1;jettySize=auto;html=1;exitX=0.5;exitY=0;exitDx=0;exitDy=0;entryX=0.5;entryY=1;entryDx=0;entryDy=0;endArrow=none;endFill=0;strokeWidth=1;strokeColor=#949494;fontFamily=Times New Roman;" parent="APk3Ht_Tyn_4InIeWBDC-172" edge="1">
          <mxGeometry relative="1" as="geometry">
            <mxPoint x="312" y="30" as="sourcePoint" />
            <mxPoint x="268" as="targetPoint" />
          </mxGeometry>
        </mxCell>
        <mxCell id="APk3Ht_Tyn_4InIeWBDC-154" style="edgeStyle=none;rounded=0;orthogonalLoop=1;jettySize=auto;html=1;exitX=0.5;exitY=0;exitDx=0;exitDy=0;entryX=0.5;entryY=1;entryDx=0;entryDy=0;endArrow=none;endFill=0;strokeWidth=1;strokeColor=#949494;fontFamily=Times New Roman;" parent="APk3Ht_Tyn_4InIeWBDC-172" edge="1">
          <mxGeometry relative="1" as="geometry">
            <mxPoint x="312" y="30" as="sourcePoint" />
            <mxPoint x="223" as="targetPoint" />
          </mxGeometry>
        </mxCell>
        <mxCell id="APk3Ht_Tyn_4InIeWBDC-155" style="edgeStyle=none;rounded=0;orthogonalLoop=1;jettySize=auto;html=1;exitX=0.5;exitY=0;exitDx=0;exitDy=0;entryX=0.5;entryY=1;entryDx=0;entryDy=0;endArrow=none;endFill=0;strokeWidth=1;strokeColor=#949494;fontFamily=Times New Roman;" parent="APk3Ht_Tyn_4InIeWBDC-172" edge="1">
          <mxGeometry relative="1" as="geometry">
            <mxPoint x="357" y="30" as="sourcePoint" />
            <mxPoint x="312" as="targetPoint" />
          </mxGeometry>
        </mxCell>
        <mxCell id="APk3Ht_Tyn_4InIeWBDC-156" style="edgeStyle=none;rounded=0;orthogonalLoop=1;jettySize=auto;html=1;exitX=0.5;exitY=0;exitDx=0;exitDy=0;entryX=0.5;entryY=1;entryDx=0;entryDy=0;endArrow=none;endFill=0;strokeWidth=1;strokeColor=#949494;fontFamily=Times New Roman;" parent="APk3Ht_Tyn_4InIeWBDC-172" edge="1">
          <mxGeometry relative="1" as="geometry">
            <mxPoint x="357" y="30" as="sourcePoint" />
            <mxPoint x="268" as="targetPoint" />
          </mxGeometry>
        </mxCell>
        <mxCell id="APk3Ht_Tyn_4InIeWBDC-173" value="" style="endArrow=classic;html=1;rounded=0;fontFamily=Times New Roman;" parent="1" edge="1">
          <mxGeometry width="50" height="50" relative="1" as="geometry">
            <mxPoint x="265" y="246" as="sourcePoint" />
            <mxPoint x="265" y="227" as="targetPoint" />
          </mxGeometry>
        </mxCell>
        <mxCell id="APk3Ht_Tyn_4InIeWBDC-166" value="" style="rounded=1;whiteSpace=wrap;html=1;dashed=1;dashPattern=8 8;fillColor=none;strokeColor=#5E5E5E;fontFamily=Times New Roman;" parent="1" vertex="1">
          <mxGeometry x="60" y="312" width="431" height="27.5" as="geometry" />
        </mxCell>
        <mxCell id="APk3Ht_Tyn_4InIeWBDC-167" value="" style="rounded=1;whiteSpace=wrap;html=1;dashed=1;dashPattern=8 8;fillColor=none;strokeColor=#5E5E5E;fontFamily=Times New Roman;" parent="1" vertex="1">
          <mxGeometry x="60" y="354" width="430.5" height="30" as="geometry" />
        </mxCell>
        <mxCell id="APk3Ht_Tyn_4InIeWBDC-169" value="L1" style="text;html=1;strokeColor=none;fillColor=none;align=center;verticalAlign=middle;whiteSpace=wrap;rounded=0;fontFamily=Times New Roman;" parent="1" vertex="1">
          <mxGeometry x="447" y="354" width="61" height="30" as="geometry" />
        </mxCell>
        <mxCell id="APk3Ht_Tyn_4InIeWBDC-170" value="L2" style="text;html=1;strokeColor=none;fillColor=none;align=center;verticalAlign=middle;whiteSpace=wrap;rounded=0;fontFamily=Times New Roman;" parent="1" vertex="1">
          <mxGeometry x="446" y="310" width="60" height="30" as="geometry" />
        </mxCell>
        <mxCell id="APk3Ht_Tyn_4InIeWBDC-42" value="" style="ellipse;whiteSpace=wrap;html=1;fillColor=#dae8fc;strokeWidth=1;strokeColor=#6c8ebf;fontFamily=Times New Roman;" parent="1" vertex="1">
          <mxGeometry x="70" y="355" width="32" height="20" as="geometry" />
        </mxCell>
        <mxCell id="APk3Ht_Tyn_4InIeWBDC-91" style="edgeStyle=none;rounded=0;orthogonalLoop=1;jettySize=auto;html=1;exitX=0.5;exitY=0;exitDx=0;exitDy=0;endArrow=none;endFill=0;strokeWidth=1;strokeColor=#949494;fontFamily=Times New Roman;" parent="1" source="APk3Ht_Tyn_4InIeWBDC-43" edge="1">
          <mxGeometry relative="1" as="geometry">
            <mxPoint x="220" y="335" as="targetPoint" />
          </mxGeometry>
        </mxCell>
        <mxCell id="APk3Ht_Tyn_4InIeWBDC-43" value="" style="ellipse;whiteSpace=wrap;html=1;fillColor=#dae8fc;strokeWidth=1;strokeColor=#6c8ebf;fontFamily=Times New Roman;" parent="1" vertex="1">
          <mxGeometry x="115" y="355" width="32" height="20" as="geometry" />
        </mxCell>
        <mxCell id="APk3Ht_Tyn_4InIeWBDC-44" value="" style="ellipse;whiteSpace=wrap;html=1;fillColor=#dae8fc;strokeWidth=1;strokeColor=#6c8ebf;fontFamily=Times New Roman;" parent="1" vertex="1">
          <mxGeometry x="204" y="355" width="32" height="20" as="geometry" />
        </mxCell>
        <mxCell id="APk3Ht_Tyn_4InIeWBDC-92" style="edgeStyle=none;rounded=0;orthogonalLoop=1;jettySize=auto;html=1;exitX=0.5;exitY=0;exitDx=0;exitDy=0;endArrow=none;endFill=0;strokeWidth=1;strokeColor=#949494;fontFamily=Times New Roman;" parent="1" source="APk3Ht_Tyn_4InIeWBDC-45" edge="1">
          <mxGeometry relative="1" as="geometry">
            <mxPoint x="220" y="335" as="targetPoint" />
          </mxGeometry>
        </mxCell>
        <mxCell id="APk3Ht_Tyn_4InIeWBDC-45" value="" style="ellipse;whiteSpace=wrap;html=1;fillColor=#dae8fc;strokeWidth=1;strokeColor=#6c8ebf;fontFamily=Times New Roman;" parent="1" vertex="1">
          <mxGeometry x="159" y="355" width="32" height="20" as="geometry" />
        </mxCell>
        <mxCell id="APk3Ht_Tyn_4InIeWBDC-96" style="edgeStyle=none;rounded=0;orthogonalLoop=1;jettySize=auto;html=1;exitX=0.5;exitY=0;exitDx=0;exitDy=0;endArrow=none;endFill=0;strokeWidth=1;strokeColor=#949494;fontFamily=Times New Roman;" parent="1" source="APk3Ht_Tyn_4InIeWBDC-46" edge="1">
          <mxGeometry relative="1" as="geometry">
            <mxPoint x="310" y="335" as="targetPoint" />
          </mxGeometry>
        </mxCell>
        <mxCell id="APk3Ht_Tyn_4InIeWBDC-46" value="" style="ellipse;whiteSpace=wrap;html=1;fillColor=#dae8fc;strokeWidth=1;strokeColor=#6c8ebf;fontFamily=Times New Roman;" parent="1" vertex="1">
          <mxGeometry x="249" y="355" width="32" height="20" as="geometry" />
        </mxCell>
        <mxCell id="APk3Ht_Tyn_4InIeWBDC-100" style="edgeStyle=none;rounded=0;orthogonalLoop=1;jettySize=auto;html=1;exitX=0.5;exitY=0;exitDx=0;exitDy=0;endArrow=none;endFill=0;strokeWidth=1;strokeColor=#949494;fontFamily=Times New Roman;" parent="1" source="APk3Ht_Tyn_4InIeWBDC-47" edge="1">
          <mxGeometry relative="1" as="geometry">
            <mxPoint x="400" y="335" as="targetPoint" />
          </mxGeometry>
        </mxCell>
        <mxCell id="APk3Ht_Tyn_4InIeWBDC-47" value="" style="ellipse;whiteSpace=wrap;html=1;fillColor=#dae8fc;strokeWidth=1;strokeColor=#6c8ebf;fontFamily=Times New Roman;" parent="1" vertex="1">
          <mxGeometry x="338" y="355" width="32" height="20" as="geometry" />
        </mxCell>
        <mxCell id="APk3Ht_Tyn_4InIeWBDC-48" value="" style="ellipse;whiteSpace=wrap;html=1;fillColor=#dae8fc;strokeWidth=1;strokeColor=#6c8ebf;fontFamily=Times New Roman;" parent="1" vertex="1">
          <mxGeometry x="293" y="355" width="32" height="20" as="geometry" />
        </mxCell>
        <mxCell id="APk3Ht_Tyn_4InIeWBDC-49" value="" style="ellipse;whiteSpace=wrap;html=1;fillColor=#dae8fc;strokeWidth=1;strokeColor=#6c8ebf;fontFamily=Times New Roman;" parent="1" vertex="1">
          <mxGeometry x="382" y="355" width="32" height="20" as="geometry" />
        </mxCell>
        <mxCell id="APk3Ht_Tyn_4InIeWBDC-50" value="" style="ellipse;whiteSpace=wrap;html=1;fillColor=#dae8fc;strokeWidth=1;strokeColor=#6c8ebf;fontFamily=Times New Roman;" parent="1" vertex="1">
          <mxGeometry x="427" y="355" width="32" height="20" as="geometry" />
        </mxCell>
        <mxCell id="APk3Ht_Tyn_4InIeWBDC-178" value="Code Feature" style="text;html=1;strokeColor=none;fillColor=none;align=center;verticalAlign=middle;whiteSpace=wrap;rounded=0;fontFamily=Times New Roman;fontStyle=1" parent="1" vertex="1">
          <mxGeometry x="84.25" y="199" width="114" height="30" as="geometry" />
        </mxCell>
        <mxCell id="JYOjPTViycPfTl_-pnLe-20" value="" style="curved=1;endArrow=classic;html=1;rounded=0;fontFamily=Times New Roman;" parent="1" edge="1">
          <mxGeometry width="50" height="50" relative="1" as="geometry">
            <mxPoint x="344" y="215" as="sourcePoint" />
            <mxPoint x="584" y="285" as="targetPoint" />
            <Array as="points">
              <mxPoint x="394" y="215" />
              <mxPoint x="550" y="215" />
              <mxPoint x="540" y="285" />
            </Array>
          </mxGeometry>
        </mxCell>
        <mxCell id="JYOjPTViycPfTl_-pnLe-21" value="" style="group;fontFamily=Times New Roman;" parent="1" vertex="1" connectable="0">
          <mxGeometry x="599" y="247" width="20" height="236" as="geometry" />
        </mxCell>
        <mxCell id="JYOjPTViycPfTl_-pnLe-13" value="" style="rounded=1;whiteSpace=wrap;html=1;fontFamily=Times New Roman;" parent="JYOjPTViycPfTl_-pnLe-21" vertex="1">
          <mxGeometry y="92" width="20" height="70" as="geometry" />
        </mxCell>
        <mxCell id="JYOjPTViycPfTl_-pnLe-12" value="" style="rounded=1;whiteSpace=wrap;html=1;fontFamily=Times New Roman;" parent="JYOjPTViycPfTl_-pnLe-21" vertex="1">
          <mxGeometry width="20" height="88" as="geometry" />
        </mxCell>
        <mxCell id="JYOjPTViycPfTl_-pnLe-1" value="" style="ellipse;whiteSpace=wrap;html=1;aspect=fixed;fillColor=#ffe6cc;strokeColor=#d79b00;fontFamily=Times New Roman;" parent="JYOjPTViycPfTl_-pnLe-21" vertex="1">
          <mxGeometry x="2" y="5" width="16" height="16" as="geometry" />
        </mxCell>
        <mxCell id="JYOjPTViycPfTl_-pnLe-2" value="" style="ellipse;whiteSpace=wrap;html=1;aspect=fixed;fillColor=#ffe6cc;strokeColor=#d79b00;fontFamily=Times New Roman;" parent="JYOjPTViycPfTl_-pnLe-21" vertex="1">
          <mxGeometry x="2" y="25" width="16" height="16" as="geometry" />
        </mxCell>
        <mxCell id="JYOjPTViycPfTl_-pnLe-3" value="" style="ellipse;whiteSpace=wrap;html=1;aspect=fixed;fillColor=#ffe6cc;strokeColor=#d79b00;fontFamily=Times New Roman;" parent="JYOjPTViycPfTl_-pnLe-21" vertex="1">
          <mxGeometry x="2" y="45" width="16" height="16" as="geometry" />
        </mxCell>
        <mxCell id="JYOjPTViycPfTl_-pnLe-4" value="" style="ellipse;whiteSpace=wrap;html=1;aspect=fixed;fillColor=#ffe6cc;strokeColor=#d79b00;fontFamily=Times New Roman;" parent="JYOjPTViycPfTl_-pnLe-21" vertex="1">
          <mxGeometry x="2" y="66" width="16" height="16" as="geometry" />
        </mxCell>
        <mxCell id="JYOjPTViycPfTl_-pnLe-5" value="" style="ellipse;whiteSpace=wrap;html=1;aspect=fixed;fillColor=#dae8fc;strokeColor=#6c8ebf;fontFamily=Times New Roman;" parent="JYOjPTViycPfTl_-pnLe-21" vertex="1">
          <mxGeometry x="2" y="98" width="16" height="16" as="geometry" />
        </mxCell>
        <mxCell id="JYOjPTViycPfTl_-pnLe-6" value="" style="ellipse;whiteSpace=wrap;html=1;aspect=fixed;fillColor=#dae8fc;strokeColor=#6c8ebf;fontFamily=Times New Roman;" parent="JYOjPTViycPfTl_-pnLe-21" vertex="1">
          <mxGeometry x="2" y="118" width="16" height="16" as="geometry" />
        </mxCell>
        <mxCell id="JYOjPTViycPfTl_-pnLe-7" value="" style="ellipse;whiteSpace=wrap;html=1;aspect=fixed;fillColor=#dae8fc;strokeColor=#6c8ebf;fontFamily=Times New Roman;" parent="JYOjPTViycPfTl_-pnLe-21" vertex="1">
          <mxGeometry x="2" y="138" width="16" height="16" as="geometry" />
        </mxCell>
        <mxCell id="JYOjPTViycPfTl_-pnLe-14" value="" style="rounded=1;whiteSpace=wrap;html=1;fontFamily=Times New Roman;" parent="JYOjPTViycPfTl_-pnLe-21" vertex="1">
          <mxGeometry y="166" width="20" height="70" as="geometry" />
        </mxCell>
        <mxCell id="JYOjPTViycPfTl_-pnLe-15" value="" style="ellipse;whiteSpace=wrap;html=1;aspect=fixed;fillColor=#d5e8d4;strokeColor=#82b366;fontFamily=Times New Roman;" parent="JYOjPTViycPfTl_-pnLe-21" vertex="1">
          <mxGeometry x="2" y="172" width="16" height="16" as="geometry" />
        </mxCell>
        <mxCell id="JYOjPTViycPfTl_-pnLe-16" value="" style="ellipse;whiteSpace=wrap;html=1;aspect=fixed;fillColor=#d5e8d4;strokeColor=#82b366;fontFamily=Times New Roman;" parent="JYOjPTViycPfTl_-pnLe-21" vertex="1">
          <mxGeometry x="2" y="192" width="16" height="16" as="geometry" />
        </mxCell>
        <mxCell id="JYOjPTViycPfTl_-pnLe-17" value="" style="ellipse;whiteSpace=wrap;html=1;aspect=fixed;fillColor=#d5e8d4;strokeColor=#82b366;fontFamily=Times New Roman;" parent="JYOjPTViycPfTl_-pnLe-21" vertex="1">
          <mxGeometry x="2" y="212" width="16" height="16" as="geometry" />
        </mxCell>
        <mxCell id="JYOjPTViycPfTl_-pnLe-23" value="Configuration Feature" style="text;html=1;strokeColor=none;fillColor=none;align=center;verticalAlign=middle;whiteSpace=wrap;rounded=0;fontFamily=Times New Roman;" parent="1" vertex="1">
          <mxGeometry x="514" y="357" width="97.5" height="30" as="geometry" />
        </mxCell>
        <mxCell id="JYOjPTViycPfTl_-pnLe-24" value="Data Feature" style="text;html=1;strokeColor=none;fillColor=none;align=center;verticalAlign=middle;whiteSpace=wrap;rounded=0;fontFamily=Times New Roman;" parent="1" vertex="1">
          <mxGeometry x="521" y="430" width="91" height="30" as="geometry" />
        </mxCell>
        <mxCell id="JYOjPTViycPfTl_-pnLe-25" value="" style="ellipse;whiteSpace=wrap;html=1;aspect=fixed;fillColor=#e1d5e7;strokeColor=#9673a6;fontFamily=Times New Roman;" parent="1" vertex="1">
          <mxGeometry x="677" y="319" width="16" height="16" as="geometry" />
        </mxCell>
        <mxCell id="JYOjPTViycPfTl_-pnLe-26" value="" style="ellipse;whiteSpace=wrap;html=1;aspect=fixed;fillColor=#e1d5e7;strokeColor=#9673a6;fontFamily=Times New Roman;" parent="1" vertex="1">
          <mxGeometry x="677" y="339" width="16" height="16" as="geometry" />
        </mxCell>
        <mxCell id="JYOjPTViycPfTl_-pnLe-27" value="" style="ellipse;whiteSpace=wrap;html=1;aspect=fixed;fillColor=#e1d5e7;strokeColor=#9673a6;fontFamily=Times New Roman;" parent="1" vertex="1">
          <mxGeometry x="677" y="360" width="16" height="16" as="geometry" />
        </mxCell>
        <mxCell id="JYOjPTViycPfTl_-pnLe-28" value="" style="ellipse;whiteSpace=wrap;html=1;aspect=fixed;fillColor=#e1d5e7;strokeColor=#9673a6;fontFamily=Times New Roman;" parent="1" vertex="1">
          <mxGeometry x="677" y="380" width="16" height="16" as="geometry" />
        </mxCell>
        <mxCell id="JYOjPTViycPfTl_-pnLe-29" value="" style="endArrow=classic;html=1;rounded=0;fontFamily=Times New Roman;" parent="1" edge="1">
          <mxGeometry width="50" height="50" relative="1" as="geometry">
            <mxPoint x="629" y="357.76" as="sourcePoint" />
            <mxPoint x="670" y="358" as="targetPoint" />
          </mxGeometry>
        </mxCell>
        <mxCell id="JYOjPTViycPfTl_-pnLe-30" value="" style="ellipse;whiteSpace=wrap;html=1;aspect=fixed;fontFamily=Times New Roman;" parent="1" vertex="1">
          <mxGeometry x="735" y="348" width="20" height="20" as="geometry" />
        </mxCell>
        <mxCell id="JYOjPTViycPfTl_-pnLe-31" value="" style="endArrow=classic;html=1;rounded=0;fontFamily=Times New Roman;" parent="1" edge="1">
          <mxGeometry width="50" height="50" relative="1" as="geometry">
            <mxPoint x="698" y="357.76" as="sourcePoint" />
            <mxPoint x="726" y="358" as="targetPoint" />
          </mxGeometry>
        </mxCell>
        <mxCell id="JYOjPTViycPfTl_-pnLe-32" value="" style="endArrow=none;html=1;rounded=0;entryX=1;entryY=0;entryDx=0;entryDy=0;fontFamily=Times New Roman;" parent="1" target="JYOjPTViycPfTl_-pnLe-30" edge="1">
          <mxGeometry width="50" height="50" relative="1" as="geometry">
            <mxPoint x="741" y="358" as="sourcePoint" />
            <mxPoint x="754" y="345" as="targetPoint" />
          </mxGeometry>
        </mxCell>
        <mxCell id="JYOjPTViycPfTl_-pnLe-33" value="" style="endArrow=none;html=1;rounded=0;entryX=0.5;entryY=0;entryDx=0;entryDy=0;exitX=0.5;exitY=1;exitDx=0;exitDy=0;fontFamily=Times New Roman;" parent="1" source="JYOjPTViycPfTl_-pnLe-30" target="JYOjPTViycPfTl_-pnLe-30" edge="1">
          <mxGeometry width="50" height="50" relative="1" as="geometry">
            <mxPoint x="738" y="368" as="sourcePoint" />
            <mxPoint x="751" y="356" as="targetPoint" />
          </mxGeometry>
        </mxCell>
        <mxCell id="JYOjPTViycPfTl_-pnLe-34" value="" style="endArrow=none;html=1;rounded=0;entryX=0;entryY=0.5;entryDx=0;entryDy=0;fontFamily=Times New Roman;" parent="1" target="JYOjPTViycPfTl_-pnLe-30" edge="1">
          <mxGeometry width="50" height="50" relative="1" as="geometry">
            <mxPoint x="741" y="358" as="sourcePoint" />
            <mxPoint x="758" y="361" as="targetPoint" />
          </mxGeometry>
        </mxCell>
        <mxCell id="JYOjPTViycPfTl_-pnLe-35" value="" style="endArrow=classic;html=1;rounded=0;fontFamily=Times New Roman;" parent="1" edge="1">
          <mxGeometry width="50" height="50" relative="1" as="geometry">
            <mxPoint x="763" y="357.71" as="sourcePoint" />
            <mxPoint x="791" y="357.95" as="targetPoint" />
          </mxGeometry>
        </mxCell>
        <mxCell id="bjcHSdZk1-LDdz5LGARR-3" value="" style="shape=curlyBracket;whiteSpace=wrap;html=1;rounded=1;labelPosition=left;verticalLabelPosition=middle;align=right;verticalAlign=middle;rotation=90;" vertex="1" parent="1">
          <mxGeometry x="675" y="140" width="20" height="190" as="geometry" />
        </mxCell>
        <mxCell id="bjcHSdZk1-LDdz5LGARR-4" value="Tower MLP" style="text;html=1;strokeColor=none;fillColor=none;align=center;verticalAlign=middle;whiteSpace=wrap;rounded=0;fontFamily=Times New Roman;" vertex="1" parent="1">
          <mxGeometry x="636.25" y="199" width="97.5" height="30" as="geometry" />
        </mxCell>
        <mxCell id="bjcHSdZk1-LDdz5LGARR-6" value="Performance Prediction Model" style="text;html=1;strokeColor=none;fillColor=none;align=center;verticalAlign=middle;whiteSpace=wrap;rounded=0;fontFamily=Times New Roman;fontStyle=1" vertex="1" parent="1">
          <mxGeometry x="580" y="494" width="190" height="30" as="geometry" />
        </mxCell>
        <mxCell id="bjcHSdZk1-LDdz5LGARR-7" value="" style="group" vertex="1" connectable="0" parent="1">
          <mxGeometry x="87" y="418" width="363" height="27" as="geometry" />
        </mxCell>
        <mxCell id="APk3Ht_Tyn_4InIeWBDC-21" value="" style="endArrow=classic;html=1;rounded=0;fontFamily=Times New Roman;" parent="bjcHSdZk1-LDdz5LGARR-7" edge="1">
          <mxGeometry width="50" height="50" relative="1" as="geometry">
            <mxPoint y="27" as="sourcePoint" />
            <mxPoint as="targetPoint" />
          </mxGeometry>
        </mxCell>
        <mxCell id="APk3Ht_Tyn_4InIeWBDC-22" value="" style="endArrow=classic;html=1;rounded=0;fontFamily=Times New Roman;" parent="bjcHSdZk1-LDdz5LGARR-7" edge="1">
          <mxGeometry width="50" height="50" relative="1" as="geometry">
            <mxPoint x="40.75999999999999" y="27" as="sourcePoint" />
            <mxPoint x="40.75999999999999" as="targetPoint" />
          </mxGeometry>
        </mxCell>
        <mxCell id="APk3Ht_Tyn_4InIeWBDC-23" value="" style="endArrow=classic;html=1;rounded=0;fontFamily=Times New Roman;" parent="bjcHSdZk1-LDdz5LGARR-7" edge="1">
          <mxGeometry width="50" height="50" relative="1" as="geometry">
            <mxPoint x="83.75999999999999" y="27" as="sourcePoint" />
            <mxPoint x="83.75999999999999" as="targetPoint" />
          </mxGeometry>
        </mxCell>
        <mxCell id="APk3Ht_Tyn_4InIeWBDC-24" value="" style="endArrow=classic;html=1;rounded=0;fontFamily=Times New Roman;" parent="bjcHSdZk1-LDdz5LGARR-7" edge="1">
          <mxGeometry width="50" height="50" relative="1" as="geometry">
            <mxPoint x="127.00999999999999" y="27" as="sourcePoint" />
            <mxPoint x="127.00999999999999" as="targetPoint" />
          </mxGeometry>
        </mxCell>
        <mxCell id="APk3Ht_Tyn_4InIeWBDC-25" value="" style="endArrow=classic;html=1;rounded=0;fontFamily=Times New Roman;" parent="bjcHSdZk1-LDdz5LGARR-7" edge="1">
          <mxGeometry width="50" height="50" relative="1" as="geometry">
            <mxPoint x="161" y="27" as="sourcePoint" />
            <mxPoint x="161" as="targetPoint" />
          </mxGeometry>
        </mxCell>
        <mxCell id="APk3Ht_Tyn_4InIeWBDC-26" value="" style="endArrow=classic;html=1;rounded=0;fontFamily=Times New Roman;" parent="bjcHSdZk1-LDdz5LGARR-7" edge="1">
          <mxGeometry width="50" height="50" relative="1" as="geometry">
            <mxPoint x="203" y="27" as="sourcePoint" />
            <mxPoint x="203" as="targetPoint" />
          </mxGeometry>
        </mxCell>
        <mxCell id="APk3Ht_Tyn_4InIeWBDC-27" value="" style="endArrow=classic;html=1;rounded=0;fontFamily=Times New Roman;" parent="bjcHSdZk1-LDdz5LGARR-7" edge="1">
          <mxGeometry width="50" height="50" relative="1" as="geometry">
            <mxPoint x="242.82999999999998" y="27" as="sourcePoint" />
            <mxPoint x="242.82999999999998" as="targetPoint" />
          </mxGeometry>
        </mxCell>
        <mxCell id="APk3Ht_Tyn_4InIeWBDC-28" value="" style="endArrow=classic;html=1;rounded=0;fontFamily=Times New Roman;" parent="bjcHSdZk1-LDdz5LGARR-7" edge="1">
          <mxGeometry width="50" height="50" relative="1" as="geometry">
            <mxPoint x="278.83" y="27" as="sourcePoint" />
            <mxPoint x="278.83" as="targetPoint" />
          </mxGeometry>
        </mxCell>
        <mxCell id="APk3Ht_Tyn_4InIeWBDC-29" value="" style="endArrow=classic;html=1;rounded=0;fontFamily=Times New Roman;" parent="bjcHSdZk1-LDdz5LGARR-7" edge="1">
          <mxGeometry width="50" height="50" relative="1" as="geometry">
            <mxPoint x="321" y="27" as="sourcePoint" />
            <mxPoint x="321" as="targetPoint" />
          </mxGeometry>
        </mxCell>
        <mxCell id="APk3Ht_Tyn_4InIeWBDC-30" value="" style="endArrow=classic;html=1;rounded=0;fontFamily=Times New Roman;" parent="bjcHSdZk1-LDdz5LGARR-7" edge="1">
          <mxGeometry width="50" height="50" relative="1" as="geometry">
            <mxPoint x="363" y="27" as="sourcePoint" />
            <mxPoint x="363" as="targetPoint" />
          </mxGeometry>
        </mxCell>
        <mxCell id="bjcHSdZk1-LDdz5LGARR-8" value="Segment Extraction Model" style="text;html=1;strokeColor=none;fillColor=none;align=center;verticalAlign=middle;whiteSpace=wrap;rounded=0;fontFamily=Times New Roman;fontStyle=1" vertex="1" parent="1">
          <mxGeometry x="124" y="493" width="265" height="30" as="geometry" />
        </mxCell>
      </root>
    </mxGraphModel>
  </diagram>
</mxfile>
